<svg xmlns="http://www.w3.org/2000/svg" shape-rendering="geometricPrecision" text-rendering="geometricPrecision" image-rendering="optimizeQuality" fill-rule="evenodd" clip-rule="evenodd" viewBox="0 0 512 467.22"><path d="M412.553 233.391h26.573c11.135 0 20.329 9.196 20.329 20.329v26.647c0 11.21-9.119 20.329-20.329 20.329h-26.573c-11.133 0-20.329-9.196-20.329-20.329V253.72c0-11.217 9.112-20.329 20.329-20.329zM38.349 409.235h158.887c1.46-8.102 8.57-14.283 17.081-14.283h21.917v-47.055H31.249C14.057 347.897 0 333.82 0 316.648v-99.209c0-17.214 14.035-31.249 31.249-31.249h35.198v-27.585H32.756c-17.222 0-31.254-14.033-31.254-31.254V31.254C1.502 14.027 15.529 0 32.756 0h448C497.942 0 512 14.084 512 31.254v96.097c0 17.182-14.077 31.254-31.244 31.254h-35.9v27.585h34.398c17.177 0 31.249 14.099 31.249 31.249v99.209c0 17.207-14.043 31.249-31.249 31.249H274.266v47.055h21.915c8.464 0 15.606 6.213 17.076 14.283h158.889c5.319 0 9.671 4.356 9.671 9.67v24.362c0 5.314-4.357 9.671-9.671 9.671H313.262c-1.465 8.087-8.595 14.282-17.081 14.282h-81.864c-8.461 0-15.604-6.214-17.076-14.282H38.349c-5.314 0-9.67-4.352-9.67-9.671v-24.362c0-5.319 4.351-9.67 9.67-9.67zM406.823 186.19v-27.585H104.479v27.585h302.344zm5.73-140.54h26.573c11.135 0 20.329 9.196 20.329 20.329v26.647c0 11.21-9.119 20.329-20.329 20.329h-26.573c-11.133 0-20.329-9.196-20.329-20.329V65.979c0-11.217 9.112-20.329 20.329-20.329zm0 14.728h26.573a5.613 5.613 0 015.601 5.601v26.647c0 3.083-2.519 5.601-5.601 5.601h-26.573a5.613 5.613 0 01-5.601-5.601V65.979a5.612 5.612 0 015.601-5.601zM122.641 228.799h35.049v24.139h-35.049v-24.139zm0 52.35h35.049v24.139h-35.049v-24.139zm0-240.091h35.049v24.139h-35.049V41.058zm0 52.35h35.049v24.139h-35.049V93.408zM67.938 228.799h35.049v24.139H67.938v-24.139zm0 52.35h35.049v24.139H67.938v-24.139zm0-240.091h35.049v24.139H67.938V41.058zm0 52.35h35.049v24.139H67.938V93.408zm-35.182-78.68h308.425v129.149H32.756c-9.092 0-16.527-7.437-16.527-16.526V31.254c0-9.097 7.43-16.526 16.527-16.526zm323.152 0h124.848c9.087 0 16.516 7.434 16.516 16.526v96.097c0 9.085-7.434 16.526-16.516 16.526H355.908V14.728zM31.249 200.92h309.932v132.247H31.249c-9.089 0-16.519-7.437-16.519-16.519v-99.209c0-9.09 7.43-16.519 16.519-16.519zm324.659 0h123.346c9.082 0 16.519 7.429 16.519 16.519v99.209c0 9.082-7.437 16.519-16.519 16.519H355.908V200.92zM217.59 404.772h75.318c5.945 0 10.809 4.896 10.809 10.809v31.011c0 5.913-4.896 10.809-10.809 10.809H217.59c-5.913 0-10.809-4.864-10.809-10.809v-31.011c0-5.946 4.864-10.809 10.809-10.809zm194.963-156.653h26.573a5.613 5.613 0 015.601 5.601v26.647c0 3.083-2.519 5.601-5.601 5.601h-26.573a5.613 5.613 0 01-5.601-5.601V253.72a5.612 5.612 0 015.601-5.601z"/></svg>